<svg xmlns="http://www.w3.org/2000/svg" width="512" height="512" role="img" aria-label="humanoid pet 4">
  <defs>
    <radialGradient id="pet_bg_humanoid_4" cx="50%" cy="40%" r="60%">
      <stop offset="0%" stop-color="#C67F59" stop-opacity="0.9" />
      <stop offset="55%" stop-color="#C67F59" stop-opacity="0.25" />
      <stop offset="100%" stop-color="#050509" stop-opacity="1" />
    </radialGradient>
  </defs>
  <rect width="512" height="512" fill="#050509" />
  <circle cx="256" cy="260" r="220" fill="url(#pet_bg_humanoid_4)" />
  <!-- simple stylized creature silhouette -->
  <g fill="#050509" stroke="#C67F59" stroke-width="6" stroke-linecap="round" stroke-linejoin="round">
    <path d="M160 310 Q 180 230 256 220 Q 332 230 352 310 Q 330 340 256 350 Q 182 340 160 310 Z" />
    <circle cx="210" cy="240" r="22" />
    <circle cx="302" cy="240" r="22" />
    <circle cx="214" cy="236" r="7" fill="#C67F59"/>
    <circle cx="306" cy="236" r="7" fill="#C67F59"/>
    <path d="M196 332 Q 256 360 316 332" />
    <path d="M184 310 Q 170 270 170 240" />
    <path d="M328 310 Q 342 270 342 240" />
    <path d="M228 204 Q 256 160 284 204" />
  </g>
  <desc>Imp-like figure with horns</desc>
</svg>
